<mxfile host="app.diagrams.net" modified="2023-08-04T00:13:17.033Z" agent="Mozilla/5.0 (Windows NT 10.0; Win64; x64) AppleWebKit/537.36 (KHTML, like Gecko) Chrome/115.0.0.0 Safari/537.36" version="21.6.6" etag="fPb4xMqtdcf7eCz_Q4iT" type="github">
  <diagram name="PÃ¡gina-1" id="qFVe_DcHbJX8tpiQHU-Y">
    <mxGraphModel>
      <root>
        <mxCell id="0" />
        <mxCell id="1" parent="0" />
      </root>
    </mxGraphModel>
  </diagram>
</mxfile>
